<?xml version="1.0" encoding="utf-8"?>
<!-- Generator: Adobe Illustrator 17.1.0, SVG Export Plug-In . SVG Version: 6.00 Build 0)  -->
<!DOCTYPE svg PUBLIC "-//W3C//DTD SVG 1.1//EN" "http://www.w3.org/Graphics/SVG/1.1/DTD/svg11.dtd">
<svg version="1.1" xmlns="http://www.w3.org/2000/svg" xmlns:xlink="http://www.w3.org/1999/xlink" x="0px" y="0px"
	 viewBox="0 0 180 135" enable-background="new 0 0 180 135" xml:space="preserve">
<g id="Casa">
</g>
<g id="Edifici">
	<path fill="#88BC4A" d="M40,8v123h10v-20h59v20h10v-20h16v20h8V8H40z M75,99H50V82h25V99z M75,69H50V52h25V69z M75,39H50V22h25V39z
		 M105,99H80V82h25V99z M105,69H80V52h25V69z M105,39H80V22h25V39z M135,99h-25V82h25V99z M135,69h-25V52h25V69z M135,39h-25V22h25
		V39z"/>
</g>
<g id="Pis">
</g>
</svg>
